# xmcd CD database file
#
# Track frame offsets:
#	150
#	13953
#	27340
#	39913
#	52958
#	63853
#	78094
#	92704
#
# Disc length: 1425 seconds
#
# Revision: 0
# Processed by: cddbd v1.5.2PL0 Copyright (c) Steve Scherf et al.
# Submitted via: CDex 1.70beta2
#
DISCID=55058f08
DTITLE=compilation - CD COllection 619 Clarinettes douces 1923-1954
DYEAR=1900
DGENRE=Jazz
TTITLE0=New Orleans Rhythm Kings - Tin Roof Blues
TTITLE1=Jimmie Noone -  Chicago Rhythm
TTITLE2=Barney Bigard and his Jazzopators - Stompy Jones
TTITLE3=Artie Shaw - NIghtmare
TTITLE4=Benny Goodman Trio - All I Do is Dream of You
TTITLE5=Maurice Meunier - Tangerine
TTITLE6=Hubert Rostaing et son orchestre - Cherokee
TTITLE7=Jimmy Giuffre - Someone to Watch Over Me
EXTD=
EXTT0=
EXTT1=
EXTT2=
EXTT3=
EXTT4=
EXTT5=
EXTT6=
EXTT7=
PLAYORDER=
